Coordinates
version=1
nRows=13
nColumns=22
inDegrees=yes

Units are S.I. units (second, meters, Newtons, ...)
If the header above contains a line with 'inDegrees', this indicates whether rotational values are in degrees (yes) or radians (no).

endheader
time	pelvis_tilt	pelvis_list	pelvis_rotation	pelvis_tx	pelvis_ty	pelvis_tz	hip_flexion_r	hip_adduction_r	hip_rotation_r	knee_angle_r	ankle_angle_r	subtalar_angle_r	hip_flexion_l	hip_adduction_l	hip_rotation_l	knee_angle_l	ankle_angle_l	subtalar_angle_l	lumbar_extension	lumbar_bending	lumbar_rotation
      0.01000000	     -9.29245728	      2.70281485	    -38.29143683	     -0.98145767	      0.88436012	     -0.39384531	     11.07235050	      2.83135020	      2.96839052	     -6.31508147	      9.30639925	     -2.50020414	      7.86382896	     -4.29837596	     -3.00067369	     -7.11680177	     14.09124594	      1.62338631	      4.60438192	      2.50919120	     10.70958931
      0.02000000	     -9.28663400	      2.69409387	    -38.31258845	     -0.98148506	      0.88438049	     -0.39382431	     11.07126544	      2.83968869	      2.97076247	     -6.32828009	      9.28587637	     -2.50864823	      7.87385346	     -4.30692163	     -2.98872079	     -7.15973701	     14.08068566	      1.63053667	      4.59112108	      2.50626078	     10.73991064
      0.03000000	     -9.27567825	      2.68735761	    -38.33060505	     -0.98152900	      0.88439770	     -0.39382569	     11.06581824	      2.84144311	      2.98580906	     -6.33698182	      9.28056257	     -2.51644472	      7.89827046	     -4.31020325	     -2.98552241	     -7.23210366	     14.09359021	      1.63493266	      4.57009728	      2.49674123	     10.75653113
      0.04000000	     -9.27527348	      2.68762121	    -38.35133010	     -0.98157329	      0.88438314	     -0.39380836	     11.07191922	      2.84584708	      3.00747570	     -6.34330232	      9.28507158	     -2.53346681	      7.94789649	     -4.31632441	     -3.03381588	     -7.33147664	     14.15891794	      1.63946059	      4.56825017	      2.48637066	     10.76481464
      0.05000000	     -9.27148325	      2.68474980	    -38.36782847	     -0.98161126	      0.88438588	     -0.39381252	     11.07307393	      2.84790954	      3.01761438	     -6.34943072	      9.28606424	     -2.53541785	      7.96651963	     -4.31937082	     -3.01891611	     -7.37700079	     14.16168595	      1.63967670	      4.55772984	      2.47707637	     10.78157820
      0.06000000	     -9.26932192	      2.68752430	    -38.38324769	     -0.98165382	      0.88437556	     -0.39381773	     11.07702731	      2.84640960	      3.03367575	     -6.35170862	      9.29162581	     -2.53517544	      7.99620176	     -4.31856869	     -3.02731758	     -7.43395068	     14.18774553	      1.63483315	      4.55281574	      2.46346360	     10.78831419
      0.07000000	     -9.27137156	      2.68724135	    -38.39575493	     -0.98167373	      0.88436876	     -0.39380552	     11.07793731	      2.84952202	      3.03173034	     -6.34897037	      9.29273536	     -2.53471410	      7.99894586	     -4.32216306	     -3.02682474	     -7.43752115	     14.18991586	      1.63406062	      4.55333318	      2.45409114	     10.78529460
      0.08000000	     -9.27366363	      2.68802316	    -38.40862703	     -0.98169148	      0.88435984	     -0.39380000	     11.07815732	      2.85126701	      3.03050624	     -6.34433500	      9.29476681	     -2.53363930	      8.00326139	     -4.32447635	     -3.02638320	     -7.44339804	     14.19353678	      1.63268391	      4.55428235	      2.44576110	     10.78312126
      0.09000000	     -9.28530478	      2.70425142	    -38.41405400	     -0.98167866	      0.88431689	     -0.39381170	     11.07604378	      2.84073494	      3.04446995	     -6.30376249	      9.31189365	     -2.51873632	      8.04178135	     -4.31704448	     -3.04557462	     -7.48281542	     14.23371682	      1.61611282	      4.57958039	      2.43175747	     10.78817664
      0.10000000	     -9.28964580	      2.70452294	    -38.42219312	     -0.98169779	      0.88430757	     -0.39382411	     11.07784747	      2.84223194	      3.04371426	     -6.29988341	      9.31164019	     -2.51666791	      8.04594456	     -4.31988977	     -3.04560018	     -7.48357683	     14.23559285	      1.61428413	      4.57869966	      2.42443718	     10.78403773
      0.11000000	     -9.31011690	      2.72086762	    -38.41906327	     -0.98164964	      0.88426090	     -0.39383973	     11.07362075	      2.83347987	      3.04794376	     -6.24645566	      9.31588643	     -2.49286431	      8.07677245	     -4.31550622	     -3.05555568	     -7.49292017	     14.25991354	      1.59585217	      4.61619747	      2.41803144	     10.76896787
      0.12000000	     -9.34162094	      2.73476410	    -38.40678217	     -0.98163839	      0.88420871	     -0.39389409	     11.08659655	      2.83220489	      3.05742931	     -6.20513867	      9.28384556	     -2.41288018	      8.13395980	     -4.32037655	     -3.03550880	     -7.52942465	     14.28187212	      1.54481038	      4.65366233	      2.41877454	     10.73946450
      0.13000000	     -9.35308635	      2.73991806	    -38.40506053	     -0.98157967	      0.88418432	     -0.39391532	     11.07479854	      2.82604078	      3.04443760	     -6.16763972	      9.30206084	     -2.39759345	      8.14402000	     -4.31933219	     -3.03471260	     -7.52756608	     14.28878750	      1.53749269	      4.67316328	      2.41481517	     10.74592735
